G04 #@! TF.GenerationSoftware,KiCad,Pcbnew,6.0.4-6f826c9f35~116~ubuntu18.04.1*
G04 #@! TF.CreationDate,2022-04-21T19:50:10+02:00*
G04 #@! TF.ProjectId,PSU_DCDC_1,5053555f-4443-4444-935f-312e6b696361,rev?*
G04 #@! TF.SameCoordinates,Original*
G04 #@! TF.FileFunction,Copper,L1,Top*
G04 #@! TF.FilePolarity,Positive*
%FSLAX46Y46*%
G04 Gerber Fmt 4.6, Leading zero omitted, Abs format (unit mm)*
G04 Created by KiCad (PCBNEW 6.0.4-6f826c9f35~116~ubuntu18.04.1) date 2022-04-21 19:50:10*
%MOMM*%
%LPD*%
G01*
G04 APERTURE LIST*
G04 Aperture macros list*
%AMRoundRect*
0 Rectangle with rounded corners*
0 $1 Rounding radius*
0 $2 $3 $4 $5 $6 $7 $8 $9 X,Y pos of 4 corners*
0 Add a 4 corners polygon primitive as box body*
4,1,4,$2,$3,$4,$5,$6,$7,$8,$9,$2,$3,0*
0 Add four circle primitives for the rounded corners*
1,1,$1+$1,$2,$3*
1,1,$1+$1,$4,$5*
1,1,$1+$1,$6,$7*
1,1,$1+$1,$8,$9*
0 Add four rect primitives between the rounded corners*
20,1,$1+$1,$2,$3,$4,$5,0*
20,1,$1+$1,$4,$5,$6,$7,0*
20,1,$1+$1,$6,$7,$8,$9,0*
20,1,$1+$1,$8,$9,$2,$3,0*%
G04 Aperture macros list end*
G04 #@! TA.AperFunction,ComponentPad*
%ADD10R,1.500000X3.000000*%
G04 #@! TD*
G04 #@! TA.AperFunction,ComponentPad*
%ADD11O,1.500000X3.000000*%
G04 #@! TD*
G04 #@! TA.AperFunction,SMDPad,CuDef*
%ADD12RoundRect,0.500000X0.500000X0.900000X-0.500000X0.900000X-0.500000X-0.900000X0.500000X-0.900000X0*%
G04 #@! TD*
G04 #@! TA.AperFunction,SMDPad,CuDef*
%ADD13RoundRect,0.700000X0.700000X0.700000X-0.700000X0.700000X-0.700000X-0.700000X0.700000X-0.700000X0*%
G04 #@! TD*
G04 #@! TA.AperFunction,SMDPad,CuDef*
%ADD14RoundRect,0.550000X0.550000X0.850000X-0.550000X0.850000X-0.550000X-0.850000X0.550000X-0.850000X0*%
G04 #@! TD*
G04 #@! TA.AperFunction,ConnectorPad*
%ADD15R,8.000000X1.900000*%
G04 #@! TD*
G04 #@! TA.AperFunction,ConnectorPad*
%ADD16R,7.500000X2.000000*%
G04 #@! TD*
G04 #@! TA.AperFunction,ComponentPad*
%ADD17C,0.700000*%
G04 #@! TD*
G04 #@! TA.AperFunction,ComponentPad*
%ADD18C,4.400000*%
G04 #@! TD*
G04 #@! TA.AperFunction,ComponentPad*
%ADD19RoundRect,0.250000X-0.600000X-0.725000X0.600000X-0.725000X0.600000X0.725000X-0.600000X0.725000X0*%
G04 #@! TD*
G04 #@! TA.AperFunction,ComponentPad*
%ADD20O,1.700000X1.950000*%
G04 #@! TD*
G04 #@! TA.AperFunction,SMDPad,CuDef*
%ADD21R,0.600000X0.700000*%
G04 #@! TD*
G04 #@! TA.AperFunction,ViaPad*
%ADD22C,0.800000*%
G04 #@! TD*
G04 #@! TA.AperFunction,ViaPad*
%ADD23C,1.000000*%
G04 #@! TD*
G04 #@! TA.AperFunction,Conductor*
%ADD24C,1.000000*%
G04 #@! TD*
G04 APERTURE END LIST*
D10*
G04 #@! TO.P,PS1,1,+Vin*
G04 #@! TO.N,Net-(J2-Pad1)*
X133377500Y-104000000D03*
D11*
G04 #@! TO.P,PS1,2,-Vin*
G04 #@! TO.N,Net-(J2-Pad4)*
X135917500Y-104000000D03*
G04 #@! TO.P,PS1,4,-Vout*
G04 #@! TO.N,/out-*
X140997500Y-104000000D03*
G04 #@! TO.P,PS1,5,0V*
G04 #@! TO.N,/out0*
X143537500Y-104000000D03*
G04 #@! TO.P,PS1,6,+Vout*
G04 #@! TO.N,/out+*
X146077500Y-104000000D03*
G04 #@! TD*
D12*
G04 #@! TO.P,J1,1*
G04 #@! TO.N,unconnected-(J1-Pad1)*
X169850000Y-93000000D03*
D13*
G04 #@! TO.P,J1,2*
G04 #@! TO.N,/out0*
X157650000Y-93000000D03*
D14*
G04 #@! TO.P,J1,3*
G04 #@! TO.N,/out-*
X165150000Y-100400000D03*
G04 #@! TO.P,J1,4*
G04 #@! TO.N,/out+*
X167050000Y-93000000D03*
G04 #@! TD*
D15*
G04 #@! TO.P,J2,1,VBUS*
G04 #@! TO.N,Net-(J2-Pad1)*
X114895000Y-103810000D03*
D16*
G04 #@! TO.P,J2,2,D-*
G04 #@! TO.N,unconnected-(J2-Pad2)*
X115145000Y-101300000D03*
G04 #@! TO.P,J2,3,D+*
G04 #@! TO.N,unconnected-(J2-Pad3)*
X115145000Y-98700000D03*
D15*
G04 #@! TO.P,J2,4,GND*
G04 #@! TO.N,Net-(J2-Pad4)*
X114895000Y-96190000D03*
G04 #@! TD*
D17*
G04 #@! TO.P,REF\u002A\u002A,1*
G04 #@! TO.N,N/C*
X128166726Y-101166726D03*
X125833274Y-98833274D03*
X128166726Y-98833274D03*
X125833274Y-101166726D03*
X128650000Y-100000000D03*
D18*
X127000000Y-100000000D03*
D17*
X127000000Y-98350000D03*
X125350000Y-100000000D03*
X127000000Y-101650000D03*
G04 #@! TD*
D19*
G04 #@! TO.P,J3,1,Pin_1*
G04 #@! TO.N,Net-(D2-Pad2)*
X155900000Y-103000000D03*
D20*
G04 #@! TO.P,J3,2,Pin_2*
G04 #@! TO.N,/out0*
X158400000Y-103000000D03*
G04 #@! TO.P,J3,3,Pin_3*
G04 #@! TO.N,Net-(D1-Pad1)*
X160900000Y-103000000D03*
G04 #@! TD*
D21*
G04 #@! TO.P,D2,1,K*
G04 #@! TO.N,/out+*
X155700000Y-100750000D03*
G04 #@! TO.P,D2,2,A*
G04 #@! TO.N,Net-(D2-Pad2)*
X157100000Y-100750000D03*
G04 #@! TD*
D17*
G04 #@! TO.P,REF\u002A\u002A,1*
G04 #@! TO.N,N/C*
X169066726Y-105166726D03*
X169066726Y-102833274D03*
X169550000Y-104000000D03*
X167900000Y-102350000D03*
D18*
X167900000Y-104000000D03*
D17*
X166733274Y-105166726D03*
X166250000Y-104000000D03*
X166733274Y-102833274D03*
X167900000Y-105650000D03*
G04 #@! TD*
D21*
G04 #@! TO.P,D1,1,K*
G04 #@! TO.N,Net-(D1-Pad1)*
X159700000Y-100750000D03*
G04 #@! TO.P,D1,2,A*
G04 #@! TO.N,/out-*
X161100000Y-100750000D03*
G04 #@! TD*
D22*
G04 #@! TO.N,/out+*
X164150000Y-93000000D03*
X155650000Y-99500000D03*
D23*
G04 #@! TO.N,Net-(J2-Pad4)*
X121500000Y-96500000D03*
G04 #@! TD*
D24*
G04 #@! TO.N,/out-*
X140997500Y-105097500D02*
X142400000Y-106500000D01*
X140997500Y-104000000D02*
X140997500Y-105097500D01*
X142400000Y-106500000D02*
X160900000Y-106500000D01*
X165150000Y-102250000D02*
X165150000Y-100400000D01*
X160900000Y-106500000D02*
X165150000Y-102250000D01*
G04 #@! TO.N,/out+*
X151900000Y-104000000D02*
X155150000Y-100750000D01*
X146077500Y-104000000D02*
X151900000Y-104000000D01*
X155150000Y-100750000D02*
X155700000Y-100750000D01*
G04 #@! TO.N,Net-(D1-Pad1)*
X160900000Y-103000000D02*
X160900000Y-102750000D01*
X160900000Y-102750000D02*
X159700000Y-101550000D01*
X159700000Y-101550000D02*
X159700000Y-100750000D01*
G04 #@! TO.N,/out-*
X164800000Y-100750000D02*
X165150000Y-100400000D01*
X161100000Y-100750000D02*
X164800000Y-100750000D01*
G04 #@! TO.N,/out+*
X155700000Y-99550000D02*
X155650000Y-99500000D01*
X155700000Y-100750000D02*
X155700000Y-99550000D01*
X164150000Y-93000000D02*
X167050000Y-93000000D01*
G04 #@! TO.N,Net-(D2-Pad2)*
X155900000Y-103000000D02*
X155900000Y-102750000D01*
X157100000Y-101550000D02*
X157100000Y-100750000D01*
X155900000Y-102750000D02*
X157100000Y-101550000D01*
G04 #@! TO.N,Net-(J2-Pad1)*
X133377500Y-104000000D02*
X133187500Y-103810000D01*
X133187500Y-103810000D02*
X115895000Y-103810000D01*
G04 #@! TO.N,Net-(J2-Pad4)*
X121190000Y-96190000D02*
X115895000Y-96190000D01*
X121500000Y-96500000D02*
X121190000Y-96190000D01*
G04 #@! TO.N,/out0*
X156400000Y-94250000D02*
X157650000Y-93000000D01*
X158400000Y-103000000D02*
X158400000Y-99500000D01*
X158400000Y-99500000D02*
X156400000Y-97500000D01*
X156400000Y-97500000D02*
X156400000Y-94250000D01*
G04 #@! TD*
M02*
