G04 #@! TF.GenerationSoftware,KiCad,Pcbnew,6.0.4-6f826c9f35~116~ubuntu18.04.1*
G04 #@! TF.CreationDate,2022-04-21T19:50:10+02:00*
G04 #@! TF.ProjectId,PSU_DCDC_1,5053555f-4443-4444-935f-312e6b696361,rev?*
G04 #@! TF.SameCoordinates,Original*
G04 #@! TF.FileFunction,Soldermask,Top*
G04 #@! TF.FilePolarity,Negative*
%FSLAX46Y46*%
G04 Gerber Fmt 4.6, Leading zero omitted, Abs format (unit mm)*
G04 Created by KiCad (PCBNEW 6.0.4-6f826c9f35~116~ubuntu18.04.1) date 2022-04-21 19:50:10*
%MOMM*%
%LPD*%
G01*
G04 APERTURE LIST*
G04 Aperture macros list*
%AMRoundRect*
0 Rectangle with rounded corners*
0 $1 Rounding radius*
0 $2 $3 $4 $5 $6 $7 $8 $9 X,Y pos of 4 corners*
0 Add a 4 corners polygon primitive as box body*
4,1,4,$2,$3,$4,$5,$6,$7,$8,$9,$2,$3,0*
0 Add four circle primitives for the rounded corners*
1,1,$1+$1,$2,$3*
1,1,$1+$1,$4,$5*
1,1,$1+$1,$6,$7*
1,1,$1+$1,$8,$9*
0 Add four rect primitives between the rounded corners*
20,1,$1+$1,$2,$3,$4,$5,0*
20,1,$1+$1,$4,$5,$6,$7,0*
20,1,$1+$1,$6,$7,$8,$9,0*
20,1,$1+$1,$8,$9,$2,$3,0*%
G04 Aperture macros list end*
%ADD10R,1.500000X3.000000*%
%ADD11O,1.500000X3.000000*%
%ADD12C,1.700000*%
%ADD13RoundRect,0.500000X0.500000X0.900000X-0.500000X0.900000X-0.500000X-0.900000X0.500000X-0.900000X0*%
%ADD14RoundRect,0.700000X0.700000X0.700000X-0.700000X0.700000X-0.700000X-0.700000X0.700000X-0.700000X0*%
%ADD15RoundRect,0.550000X0.550000X0.850000X-0.550000X0.850000X-0.550000X-0.850000X0.550000X-0.850000X0*%
%ADD16R,8.000000X1.900000*%
%ADD17R,7.500000X2.000000*%
%ADD18C,0.700000*%
%ADD19C,4.400000*%
%ADD20RoundRect,0.250000X-0.600000X-0.725000X0.600000X-0.725000X0.600000X0.725000X-0.600000X0.725000X0*%
%ADD21O,1.700000X1.950000*%
%ADD22R,0.600000X0.700000*%
G04 APERTURE END LIST*
D10*
G04 #@! TO.C,PS1*
X133377500Y-104000000D03*
D11*
X135917500Y-104000000D03*
X140997500Y-104000000D03*
X143537500Y-104000000D03*
X146077500Y-104000000D03*
G04 #@! TD*
D12*
G04 #@! TO.C,J1*
X158950000Y-96700000D03*
X165950000Y-96700000D03*
D13*
X169850000Y-93000000D03*
D14*
X157650000Y-93000000D03*
D15*
X165150000Y-100400000D03*
X167050000Y-93000000D03*
G04 #@! TD*
D16*
G04 #@! TO.C,J2*
X114895000Y-103810000D03*
D17*
X115145000Y-101300000D03*
X115145000Y-98700000D03*
D16*
X114895000Y-96190000D03*
G04 #@! TD*
D18*
G04 #@! TO.C,REF\u002A\u002A*
X128166726Y-101166726D03*
X125833274Y-98833274D03*
X128166726Y-98833274D03*
X125833274Y-101166726D03*
X128650000Y-100000000D03*
D19*
X127000000Y-100000000D03*
D18*
X127000000Y-98350000D03*
X125350000Y-100000000D03*
X127000000Y-101650000D03*
G04 #@! TD*
D20*
G04 #@! TO.C,J3*
X155900000Y-103000000D03*
D21*
X158400000Y-103000000D03*
X160900000Y-103000000D03*
G04 #@! TD*
D22*
G04 #@! TO.C,D2*
X155700000Y-100750000D03*
X157100000Y-100750000D03*
G04 #@! TD*
D18*
G04 #@! TO.C,REF\u002A\u002A*
X169066726Y-105166726D03*
X169066726Y-102833274D03*
X169550000Y-104000000D03*
X167900000Y-102350000D03*
D19*
X167900000Y-104000000D03*
D18*
X166733274Y-105166726D03*
X166250000Y-104000000D03*
X166733274Y-102833274D03*
X167900000Y-105650000D03*
G04 #@! TD*
D22*
G04 #@! TO.C,D1*
X159700000Y-100750000D03*
X161100000Y-100750000D03*
G04 #@! TD*
M02*
