G04 #@! TF.GenerationSoftware,KiCad,Pcbnew,6.0.4-6f826c9f35~116~ubuntu18.04.1*
G04 #@! TF.CreationDate,2022-04-21T19:50:10+02:00*
G04 #@! TF.ProjectId,PSU_DCDC_1,5053555f-4443-4444-935f-312e6b696361,rev?*
G04 #@! TF.SameCoordinates,Original*
G04 #@! TF.FileFunction,Copper,L2,Bot*
G04 #@! TF.FilePolarity,Positive*
%FSLAX46Y46*%
G04 Gerber Fmt 4.6, Leading zero omitted, Abs format (unit mm)*
G04 Created by KiCad (PCBNEW 6.0.4-6f826c9f35~116~ubuntu18.04.1) date 2022-04-21 19:50:10*
%MOMM*%
%LPD*%
G01*
G04 APERTURE LIST*
G04 Aperture macros list*
%AMRoundRect*
0 Rectangle with rounded corners*
0 $1 Rounding radius*
0 $2 $3 $4 $5 $6 $7 $8 $9 X,Y pos of 4 corners*
0 Add a 4 corners polygon primitive as box body*
4,1,4,$2,$3,$4,$5,$6,$7,$8,$9,$2,$3,0*
0 Add four circle primitives for the rounded corners*
1,1,$1+$1,$2,$3*
1,1,$1+$1,$4,$5*
1,1,$1+$1,$6,$7*
1,1,$1+$1,$8,$9*
0 Add four rect primitives between the rounded corners*
20,1,$1+$1,$2,$3,$4,$5,0*
20,1,$1+$1,$4,$5,$6,$7,0*
20,1,$1+$1,$6,$7,$8,$9,0*
20,1,$1+$1,$8,$9,$2,$3,0*%
G04 Aperture macros list end*
G04 #@! TA.AperFunction,ComponentPad*
%ADD10R,1.500000X3.000000*%
G04 #@! TD*
G04 #@! TA.AperFunction,ComponentPad*
%ADD11O,1.500000X3.000000*%
G04 #@! TD*
G04 #@! TA.AperFunction,ComponentPad*
%ADD12C,0.700000*%
G04 #@! TD*
G04 #@! TA.AperFunction,ComponentPad*
%ADD13C,4.400000*%
G04 #@! TD*
G04 #@! TA.AperFunction,ComponentPad*
%ADD14RoundRect,0.250000X-0.600000X-0.725000X0.600000X-0.725000X0.600000X0.725000X-0.600000X0.725000X0*%
G04 #@! TD*
G04 #@! TA.AperFunction,ComponentPad*
%ADD15O,1.700000X1.950000*%
G04 #@! TD*
G04 #@! TA.AperFunction,ViaPad*
%ADD16C,0.800000*%
G04 #@! TD*
G04 #@! TA.AperFunction,ViaPad*
%ADD17C,1.000000*%
G04 #@! TD*
G04 #@! TA.AperFunction,Conductor*
%ADD18C,1.000000*%
G04 #@! TD*
G04 APERTURE END LIST*
D10*
G04 #@! TO.P,PS1,1,+Vin*
G04 #@! TO.N,Net-(J2-Pad1)*
X133377500Y-104000000D03*
D11*
G04 #@! TO.P,PS1,2,-Vin*
G04 #@! TO.N,Net-(J2-Pad4)*
X135917500Y-104000000D03*
G04 #@! TO.P,PS1,4,-Vout*
G04 #@! TO.N,/out-*
X140997500Y-104000000D03*
G04 #@! TO.P,PS1,5,0V*
G04 #@! TO.N,/out0*
X143537500Y-104000000D03*
G04 #@! TO.P,PS1,6,+Vout*
G04 #@! TO.N,/out+*
X146077500Y-104000000D03*
G04 #@! TD*
D12*
G04 #@! TO.P,REF\u002A\u002A,1*
G04 #@! TO.N,N/C*
X128166726Y-101166726D03*
X125833274Y-98833274D03*
X128166726Y-98833274D03*
X125833274Y-101166726D03*
X128650000Y-100000000D03*
D13*
X127000000Y-100000000D03*
D12*
X127000000Y-98350000D03*
X125350000Y-100000000D03*
X127000000Y-101650000D03*
G04 #@! TD*
D14*
G04 #@! TO.P,J3,1,Pin_1*
G04 #@! TO.N,Net-(D2-Pad2)*
X155900000Y-103000000D03*
D15*
G04 #@! TO.P,J3,2,Pin_2*
G04 #@! TO.N,/out0*
X158400000Y-103000000D03*
G04 #@! TO.P,J3,3,Pin_3*
G04 #@! TO.N,Net-(D1-Pad1)*
X160900000Y-103000000D03*
G04 #@! TD*
D12*
G04 #@! TO.P,REF\u002A\u002A,1*
G04 #@! TO.N,N/C*
X169066726Y-105166726D03*
X169066726Y-102833274D03*
X169550000Y-104000000D03*
X167900000Y-102350000D03*
D13*
X167900000Y-104000000D03*
D12*
X166733274Y-105166726D03*
X166250000Y-104000000D03*
X166733274Y-102833274D03*
X167900000Y-105650000D03*
G04 #@! TD*
D16*
G04 #@! TO.N,/out+*
X164150000Y-93000000D03*
X155650000Y-99500000D03*
D17*
G04 #@! TO.N,Net-(J2-Pad4)*
X121500000Y-96500000D03*
G04 #@! TD*
D18*
G04 #@! TO.N,/out0*
X143537500Y-105087500D02*
X144950000Y-106500000D01*
X143537500Y-104000000D02*
X143537500Y-105087500D01*
X144950000Y-106500000D02*
X155300000Y-106500000D01*
X155300000Y-106500000D02*
X158400000Y-103400000D01*
X158400000Y-103400000D02*
X158400000Y-103000000D01*
G04 #@! TO.N,/out+*
X160400000Y-99500000D02*
X162650000Y-97250000D01*
X162650000Y-94500000D02*
X164150000Y-93000000D01*
X162650000Y-97250000D02*
X162650000Y-94500000D01*
X155650000Y-99500000D02*
X160400000Y-99500000D01*
G04 #@! TO.N,Net-(J2-Pad4)*
X135917500Y-104000000D02*
X135917500Y-105082500D01*
X121500000Y-99700000D02*
X121500000Y-96500000D01*
X135917500Y-105082500D02*
X134500000Y-106500000D01*
X134500000Y-106500000D02*
X128300000Y-106500000D01*
X128300000Y-106500000D02*
X121500000Y-99700000D01*
G04 #@! TD*
M02*
