M48
INCH,TZ
T1C0.0157
T2C0.0157
T3C0.0197
T4C0.0374
T5C0.0394
T6C0.0866
%
G90
G05
T1
X61280Y-39173
X64626Y-36614
T2
X49350Y-39370
X49541Y-38911
X49541Y-39829
X50000Y-38720
X50000Y-40020
X50459Y-38911
X50459Y-39829
X50650Y-39370
X65453Y-40945
X65643Y-40486
X65643Y-41404
X66102Y-40295
X66102Y-41594
X66562Y-40486
X66562Y-41404
X66752Y-40945
T3
X47835Y-37992
T4
X61378Y-40551
X62362Y-40551
X63346Y-40551
T5
X52511Y-40945
X53511Y-40945
X55511Y-40945
X56511Y-40945
X57511Y-40945
T6
X50000Y-39370
X66102Y-40945
T0
M30
